<?xml version="1.0" encoding="utf-8"?>
<!-- Generator: Adobe Illustrator 25.2.0, SVG Export Plug-In . SVG Version: 6.00 Build 0)  -->
<svg version="1.1" id="Capa_1" xmlns="http://www.w3.org/2000/svg" xmlns:xlink="http://www.w3.org/1999/xlink" x="0px" y="0px"
	 viewBox="0 0 285.6 285.5" style="enable-background:new 0 0 285.6 285.5;" xml:space="preserve">
<style type="text/css">
	.st0{fill:#FCC302;}
	.st1{fill:#F7F9FA;}
</style>
<g>
	<path class="st0" d="M142.8,285.5C64.1,285.5,0,221.4,0,142.7C0.1,64,64.3-0.1,143,0c78.7,0.1,142.6,64.3,142.5,143.1
		C285.4,221.5,221.3,285.5,142.8,285.5z"/>
	<path class="st1" d="M155.1,189.5c0,12.1-0.1,24.2,0.1,36.2c0.1,3.7-0.7,5.2-4.8,5c-8.3-0.3-16.7-0.3-25.1,0
		c-4.1,0.2-4.8-1.3-4.8-5.1c0.2-24,0-47.9,0.2-71.9c0-4.6-0.7-6.4-5.9-6.2c-10.5,0.5-10.5,0.1-10.5-10.2c0-5,0.2-10-0.1-15
		c-0.2-3.3,1.1-4.2,4.2-4c3.9,0.2,9.2,1.4,11.2-0.6c2.7-2.7,0.9-8.1,0.9-12.3c0-6.9,0.2-13.8,2.6-20.3c5.1-13.4,15.5-19.4,29.2-20.2
		c8.3-0.5,16.7,0,25.1-0.2c2.8-0.1,3.5,0.9,3.4,3.5c-0.1,7.2-0.1,14.5,0,21.7c0.1,2.7-0.8,3.6-3.5,3.5c-4.8-0.2-9.7,0-14.5-0.1
		c-5,0-7.6,2.5-7.8,7.4c-0.1,4.8,0.1,9.7-0.1,14.5c-0.1,2.5,0.8,3.1,3.2,3.1c6.3-0.1,12.6,0.1,19-0.1c3.3-0.1,4.1,1,3.7,4.2
		c-0.9,7.4-1.7,14.8-2.3,22.2c-0.2,2.4-1,3.2-3.4,3.1c-5-0.1-10.1,0.2-15-0.1c-4-0.3-5.4,0.6-5.3,5
		C155.3,165,155.1,177.2,155.1,189.5z"/>
</g>
</svg>
