<?xml version="1.0" encoding="utf-8"?>
<!-- Generator: Adobe Illustrator 25.2.0, SVG Export Plug-In . SVG Version: 6.00 Build 0)  -->
<svg version="1.1" id="Capa_1" xmlns="http://www.w3.org/2000/svg" xmlns:xlink="http://www.w3.org/1999/xlink" x="0px" y="0px"
	 viewBox="0 0 285.6 285.5" style="enable-background:new 0 0 285.6 285.5;" xml:space="preserve">
<style type="text/css">
	.st0{fill:#FCC302;}
	.st1{fill:#F7F9FA;}
	.st2{fill:#F6F8F9;}
</style>
<g>
	<g id="XMLID_1_">
		<g>
			<path class="st0" d="M285.6,142.5c0.1,78.8-63.8,142.9-142.5,143C64.2,285.6,0.1,221.7,0,143C-0.1,64.1,63.8,0.1,142.5,0
				C221.4-0.1,285.5,63.8,285.6,142.5z"/>
		</g>
		<g>
		</g>
	</g>
	<path class="st1" d="M224.2,143.3c0,11.7,0.3,23.4-0.1,35.1c-0.9,25.1-15.1,42.1-40,44.8c-27.5,3-55.4,3-82.9,0
		c-24.4-2.7-38.6-19.4-39.7-43.9c-1.1-24.3-1.1-48.7,0-73c1.2-26.2,18.4-43.6,44.7-44.8c24.3-1.1,48.7-1.1,73,0
		c26.5,1.2,43.8,18.6,45,45.1C224.6,118.8,224.2,131,224.2,143.3L224.2,143.3z"/>
	<path class="st0" d="M142.9,76c12.4-0.1,24.9-1.1,37.3,0.4c18.4,2.3,27.3,10.4,28.8,28.8c2,25,2,50.2,0,75.1
		c-1.5,18.1-10.4,27-28.4,28.5c-25,2.1-50.2,2-75.2,0.1c-18.5-1.4-27.3-10.3-28.8-28.7c-2-24.8-1.9-49.8-0.1-74.6
		C78,86.1,88.8,76.9,108.9,76C120.2,75.6,131.6,76,142.9,76z"/>
	<path class="st1" d="M100.6,142.4c0.2-23.1,19.4-42.1,42.5-41.9s42.1,19.4,41.9,42.5c-0.2,23.1-19.4,42.1-42.5,41.9
		C119.4,184.7,100.4,165.5,100.6,142.4z"/>
	<path class="st2" d="M196.4,99.7c-0.4,5.4-5.2,9.6-10.6,9.1c-5.2-0.5-9.3-5.1-9-10.2c0.2-5.5,4.9-9.7,10.4-9.4
		C192.5,89.5,196.7,94.2,196.4,99.7z"/>
	<path class="st0" d="M170.1,142.7c0,15.1-12.1,27.3-27.2,27.3s-27.3-12.1-27.3-27.2s12.1-27.3,27.2-27.3S170,127.6,170.1,142.7z"/>
</g>
</svg>
