<?xml version="1.0" encoding="utf-8"?>
<!-- Generator: Adobe Illustrator 25.2.0, SVG Export Plug-In . SVG Version: 6.00 Build 0)  -->
<svg version="1.1" id="Capa_1" xmlns="http://www.w3.org/2000/svg" xmlns:xlink="http://www.w3.org/1999/xlink" x="0px" y="0px"
	 viewBox="0 0 285.6 285.5" style="enable-background:new 0 0 285.6 285.5;" xml:space="preserve">
<style type="text/css">
	.st0{fill:#FCC302;}
	.st1{fill:#F7F9FA;}
</style>
<g>
	<path class="st0" d="M0,143C-0.1,64.1,63.8,0,142.6,0c78.8-0.1,143,63.8,143,142.5c0.1,78.8-63.8,142.9-142.6,143
		C64.2,285.6,0.1,221.7,0,143z"/>
	<path class="st1" d="M59.7,227.4c3.8-14,7.2-27.1,10.9-40c0.8-2.9,0.6-5.2-0.7-7.9c-26.2-52.2,4.5-113.2,62-123.4
		c44.8-8,90.1,23.6,97.9,68.1c8.3,47.2-21.9,91.7-67.7,100.1c-18.7,3.4-36.6,1.2-53.7-7.1c-3-1.5-5.6-1.2-8.4-0.4
		C86.9,220.2,73.9,223.6,59.7,227.4z"/>
	<path class="st0" d="M80.2,207c2.1-7.9,3.8-14.9,5.9-21.7c1-3.2,0.5-5.5-1.2-8.3c-25-42.4-2-95.3,46.1-106
		c37.5-8.4,76,16.2,84.1,53.8c8.2,38.5-15.9,76.7-53.6,84.8c-17.8,3.8-34.7,1.6-50.6-7.5c-3-1.7-5.7-1.9-8.9-1
		C95.2,203.2,88.2,204.9,80.2,207z"/>
	<path class="st1" d="M102.5,120.7c-0.1-6.5,2.4-11.9,6.8-16.5c5.6-5.8,13.1-4.3,16.2,3c0.9,2.2,1.6,4.6,2.8,6.6
		c3.8,6.3,3.9,12-2.1,17.2c-2.5,2.2-1.6,4.5-0.1,6.9c6.5,10.1,15.1,17.7,26.1,22.6c3.5,1.6,5.6,1.2,8.1-1.8
		c7.3-8.9,7.4-8.8,17.7-3.8c1.3,0.6,2.7,1.3,4,2c8.3,4.1,9.2,12.3,2,18.5c-7.2,6.2-15.5,7.3-24.5,4.7c-23.9-6.9-40.4-22.7-52.7-43.6
		C103.3,130.6,102.4,126.3,102.5,120.7z"/>
</g>
</svg>
