<?xml version="1.0" encoding="utf-8"?>
<!-- Generator: Adobe Illustrator 25.2.0, SVG Export Plug-In . SVG Version: 6.00 Build 0)  -->
<svg version="1.1" id="Capa_1" xmlns="http://www.w3.org/2000/svg" xmlns:xlink="http://www.w3.org/1999/xlink" x="0px" y="0px"
	 viewBox="0 0 285.6 285.5" style="enable-background:new 0 0 285.6 285.5;" xml:space="preserve">
<style type="text/css">
	.st0{fill:#FCC302;}
	.st1{fill:#F7F9FA;}
</style>
<g>
	<path class="st0" d="M142.8,285.6C64,285.6,0,221.6,0,142.7C0,63.9,64-0.1,142.8-0.1c78.8,0,142.8,64,142.8,142.9
		C285.6,221.6,221.6,285.6,142.8,285.6z"/>
	<path class="st1" d="M112.6,180.8c-14.8-2.1-24.7-9-29.9-22.5c4.5-0.3,8.6,0.8,12.9-1.1C78.8,150,71,139.6,71.5,125.3
		c4.2,0.9,8,3.6,13.1,2.8c-9-7.7-13.8-16.9-13.2-28.5c0-0.6,0-1.1,0.1-1.7c0.6-4.2,0.8-9.6,4.2-11.6c2.2-1.3,4.8,4.2,7.3,6.5
		c15.7,15,34.4,23.5,55.9,26.1c4,0.5,4.1-0.9,3.9-4.1c-0.9-17.7,8.7-31.1,25.2-35c10.4-2.5,20-0.2,28.1,6.8c2.6,2.3,4.9,2.5,7.9,1.6
		c4.9-1.5,9.6-3.4,15.1-6.2c-1.8,7.9-6.7,12.2-12.1,16.9c5.5,0.3,10-2.5,15.8-2.9c-3.1,5.1-6.6,8.9-10.7,12
		c-2.9,2.2-4.1,4.5-4.1,8.3c-0.7,44.8-30.6,81.7-73.6,90.6c-24,4.9-46.7,1.1-67.9-12.1C83.1,195.4,98.3,191.5,112.6,180.8z"/>
</g>
</svg>
